<?xml version="1.0" encoding="utf-8"?>
<!-- Generator: Adobe Illustrator 18.0.0, SVG Export Plug-In . SVG Version: 6.00 Build 0)  -->
<!DOCTYPE svg PUBLIC "-//W3C//DTD SVG 1.1//EN" "http://www.w3.org/Graphics/SVG/1.1/DTD/svg11.dtd">
<svg version="1.1" id="Layer_1" xmlns="http://www.w3.org/2000/svg" xmlns:xlink="http://www.w3.org/1999/xlink" x="0px" y="0px"
	 viewBox="0 0 1000 1000" enable-background="new 0 0 1000 1000" xml:space="preserve">
<g>
	<path fill="#38BA99" stroke="#000000" stroke-miterlimit="10" d="M980.7,993.2H18.2c-6.6,0-12-5.4-12-12V17.6c0-6.6,5.4-12,12-12
		h962.5c6.6,0,12,5.4,12,12v963.6C992.7,987.8,987.3,993.2,980.7,993.2z"/>
	<g>
		<rect x="73.6" y="96.6" fill="none" width="652.8" height="932.6"/>
		<path fill="#FFFFFF" d="M544.8,142.6h96.7l-238.8,714h-91.3l-237.8-714h96.2l144,452.7c9.4,29.6,17.6,58.2,24.4,85.7
			c6.8,27.5,13,53.3,18.6,77.4c4.9-24.1,11.1-49.9,18.5-77.4c7.5-27.5,16.3-57,26.4-88.6L544.8,142.6z"/>
	</g>
	<g>
		<rect x="352.8" y="96.6" fill="none" width="652.8" height="932.6"/>
		<path fill="#FFFFFF" d="M824,142.6h96.7l-238.8,714h-91.3l-237.8-714H449l144,452.7c9.4,29.6,17.6,58.2,24.4,85.7
			c6.8,27.5,13,53.3,18.6,77.4c4.9-24.1,11.1-49.9,18.5-77.4c7.5-27.5,16.3-57,26.4-88.6L824,142.6z"/>
	</g>
</g>
</svg>
